<svg xmlns="http://www.w3.org/2000/svg" width="29" height="29" viewBox="0 0 29 29" fill="none">
    <g clip-path="url(#clip0_3139_19924)">
        <path fill-rule="evenodd" clip-rule="evenodd"
            d="M13.0696 0.115113H15.9307C17.9245 0.115098 19.5101 0.115098 20.7887 0.221273C22.0981 0.330009 23.2138 0.557521 24.2327 1.08684C25.8091 1.9057 27.0944 3.19103 27.9134 4.76741C28.4427 5.78641 28.6702 6.90208 28.7789 8.21151C28.8851 9.49008 28.8851 11.0757 28.8851 13.0695V15.9306C28.8851 17.9244 28.8851 19.51 28.7789 20.7885C28.6702 22.098 28.4427 23.2137 27.9134 24.2326C27.0944 25.809 25.8091 27.0943 24.2327 27.9132C23.2138 28.4426 22.0981 28.67 20.7887 28.7788C19.5101 28.885 17.9245 28.885 15.9307 28.885H13.0696C11.0758 28.885 9.4902 28.885 8.21163 28.7788C6.9022 28.67 5.78653 28.4426 4.76753 27.9132C3.19115 27.0943 1.90583 25.809 1.08696 24.2326C0.557643 23.2137 0.330131 22.098 0.221396 20.7885C0.11522 19.51 0.11522 17.9244 0.115235 15.9306V13.0695C0.11522 11.0757 0.11522 9.49007 0.221396 8.21151C0.330131 6.90208 0.557643 5.78641 1.08696 4.76741C1.90583 3.19103 3.19115 1.9057 4.76753 1.08684C5.78653 0.557521 6.9022 0.330009 8.21163 0.221273C9.49019 0.115098 11.0758 0.115098 13.0696 0.115113ZM8.44973 3.08839C7.32143 3.18208 6.63365 3.35946 6.09375 3.63992C5.04283 4.18583 4.18595 5.04271 3.64004 6.09363C3.35958 6.63352 3.1822 7.32131 3.08851 8.44961C2.99337 9.59513 2.99222 11.0613 2.99222 13.1335V15.8666C2.99222 17.9387 2.99337 19.4049 3.08851 20.5505C3.1822 21.6788 3.35958 22.3666 3.64004 22.9064C4.18595 23.9574 5.04283 24.8143 6.09375 25.3602C6.63365 25.6406 7.32143 25.8179 8.44973 25.9117C9.59526 26.0068 11.0614 26.008 13.1336 26.008H15.8667C17.9389 26.008 19.405 26.0068 20.5506 25.9117C21.6789 25.8179 22.3667 25.6406 22.9066 25.3602C23.9575 24.8143 24.8144 23.9574 25.3603 22.9064C25.6407 22.3666 25.8181 21.6788 25.9119 20.5505C26.0069 19.4049 26.0081 17.9387 26.0081 15.8666V13.1335C26.0081 11.0613 26.0069 9.59513 25.9119 8.44961C25.8181 7.32131 25.6407 6.63352 25.3603 6.09363C24.8144 5.04271 23.9575 4.18583 22.9066 3.63992C22.3667 3.35946 21.6789 3.18208 20.5506 3.08839C19.405 2.99325 17.9389 2.9921 15.8667 2.9921H13.1336C11.0614 2.9921 9.59526 2.99325 8.44973 3.08839ZM14.2533 6.95854C15.0478 6.95854 15.6918 7.60256 15.6918 8.39703V15.5422L20.7652 17.471C21.5079 17.7532 21.8811 18.5841 21.5987 19.3266C21.3165 20.0693 20.4856 20.4424 19.743 20.1601L13.7422 17.8791C13.1839 17.6667 12.8148 17.1316 12.8148 16.5343V8.39703C12.8148 7.60256 13.4588 6.95854 14.2533 6.95854Z"
            fill="white" />
    </g>
    <defs>
        <clipPath id="clip0_3139_19924">
            <rect width="29" height="29" fill="white" />
        </clipPath>
    </defs>
</svg>