<svg fill="none" height="32" viewBox="0 0 32 32" width="32" xmlns="http://www.w3.org/2000/svg"><path d="m29.4562.730957h-26.90924c-1.40868 0-2.54696 1.137203-2.54696 2.543753v25.45139c0 1.4023 1.13828 2.5427 2.54696 2.5427h26.90924c1.4023 0 2.5438-1.1393 2.5438-2.5427v-25.45139c-.0011-1.40655-1.1426-2.543753-2.5438-2.543753zm-7.9465 9.066663c-.6616-.3869-1.1864-.69258-1.8458-.69258-.6456 0-1.1971.16139-1.4793.43286-.2821.26934-.4221.7909-.4221 1.5615v1.1404h3.4511l-.7471 3.1723h-2.704v10.5405h-4.3351v-10.5405h-2.0233v-3.1723h2.0254v-1.2109c0-1.2751.1529-2.03823.4543-2.66775.3003-.62739.8828-1.32639 1.693-1.72184.809-.39439 2.0061-.59319 3.2448-.59319 1.2698 0 2.2616.42325 3.4779.7642z" fill="#fff"></path></svg>