<svg xmlns="http://www.w3.org/2000/svg" width="19" height="19" viewBox="0 0 19 19" fill="none">
    <g clip-path="url(#clip0_3139_20011)">
      <path fill-rule="evenodd" clip-rule="evenodd" d="M6.23874 0.610456C4.77365 0.676561 3.50379 1.03476 2.4784 2.05582C1.44943 3.08224 1.09568 4.35713 1.02941 5.80699C0.988217 6.71192 0.747332 13.5485 1.44585 15.3414C1.9169 16.5509 2.84465 17.4809 4.06526 17.9535C4.63482 18.175 5.285 18.325 6.23874 18.3688C14.2135 18.7297 17.1696 18.5332 18.4162 15.3414C18.6374 14.7732 18.7897 14.1236 18.8317 13.1722C19.1962 5.17704 18.7727 3.44403 17.3828 2.05582C16.2804 0.956144 14.9836 0.207571 6.23874 0.610456ZM6.31216 16.7608C5.43901 16.7215 4.96528 16.576 4.64916 16.4536C3.85393 16.1445 3.25661 15.5497 2.94944 14.7591C2.41749 13.3968 2.59392 6.92647 2.64138 5.8795C2.68795 4.85397 2.89571 3.9167 3.6193 3.19312C4.51484 2.2998 5.67185 1.86199 13.5499 2.21754C14.5779 2.26399 15.5174 2.47132 16.2428 3.19312C17.1383 4.08644 17.5825 5.25236 17.2207 13.1002C17.1813 13.9711 17.0353 14.4437 16.9126 14.7591C16.1022 16.836 14.2376 17.1244 6.31216 16.7608ZM13.6367 4.72066C13.6367 5.31204 14.1177 5.79293 14.7114 5.79293C15.3051 5.79293 15.7869 5.31204 15.7869 4.72066C15.7869 4.12929 15.3051 3.64884 14.7114 3.64884C14.1177 3.64884 13.6367 4.12929 13.6367 4.72066ZM5.33246 9.48917C5.33246 12.0226 7.3913 14.0766 9.93103 14.0766C12.4708 14.0766 14.5296 12.0226 14.5296 9.48917C14.5296 6.95572 12.4708 4.90303 9.93103 4.90303C7.3913 4.90303 5.33246 6.95572 5.33246 9.48917ZM6.94621 9.48917C6.94621 7.84547 8.28235 6.51187 9.93103 6.51187C11.5797 6.51187 12.9159 7.84547 12.9159 9.48917C12.9159 11.1338 11.5797 12.4678 9.93103 12.4678C8.28235 12.4678 6.94621 11.1338 6.94621 9.48917Z" fill="black"/>
    </g>
    <defs>
      <clipPath id="clip0_3139_20011">
        <rect width="18" height="18" fill="white" transform="translate(0.956055 0.5)"/>
      </clipPath>
    </defs>
  </svg>