<svg fill="none" height="32" viewBox="0 0 32 32" width="32" xmlns="http://www.w3.org/2000/svg"><path d="m15.9996 12.8181c-1.754 0-3.1822 1.4275-3.1822 3.1815 0 1.7548 1.4282 3.183 3.1822 3.183 1.7548 0 3.1823-1.4282 3.1823-3.183 0-1.754-1.4275-3.1815-3.1823-3.1815zm0 0c-1.754 0-3.1822 1.4275-3.1822 3.1815 0 1.7548 1.4282 3.183 3.1822 3.183 1.7548 0 3.1823-1.4282 3.1823-3.183 0-1.754-1.4275-3.1815-3.1823-3.1815zm5.3014-5.18832h-10.602c-1.69226 0-3.06922 1.37696-3.06922 3.06922v10.602c0 1.6923 1.37696 3.0692 3.06922 3.0692h10.602c1.6923 0 3.0692-1.3769 3.0692-3.0692v-10.602c0-1.69226-1.3769-3.06922-3.0692-3.06922zm-5.3014 13.88122c-3.0382 0-5.5106-2.4724-5.5106-5.5114 0-3.0382 2.4724-5.5106 5.5106-5.5106 3.039 0 5.5114 2.4724 5.5114 5.5106 0 3.039-2.4724 5.5114-5.5114 5.5114zm5.6883-9.8824c-.719 0-1.3039-.5849-1.3039-1.3039 0-.71901.5849-1.30392 1.3039-1.30392s1.304.58491 1.304 1.30392c0 .719-.585 1.3039-1.304 1.3039zm-5.6883 1.1895c-1.754 0-3.1822 1.4275-3.1822 3.1815 0 1.7548 1.4282 3.183 3.1822 3.183 1.7548 0 3.1823-1.4282 3.1823-3.183 0-1.754-1.4275-3.1815-3.1823-3.1815zm5.3014-5.18832h-10.602c-1.69226 0-3.06922 1.37696-3.06922 3.06922v10.602c0 1.6923 1.37696 3.0692 3.06922 3.0692h10.602c1.6923 0 3.0692-1.3769 3.0692-3.0692v-10.602c0-1.69226-1.3769-3.06922-3.0692-3.06922zm-5.3014 13.88122c-3.0382 0-5.5106-2.4724-5.5106-5.5114 0-3.0382 2.4724-5.5106 5.5106-5.5106 3.039 0 5.5114 2.4724 5.5114 5.5106 0 3.039-2.4724 5.5114-5.5114 5.5114zm5.6883-9.8824c-.719 0-1.3039-.5849-1.3039-1.3039 0-.71901.5849-1.30392 1.3039-1.30392s1.304.58491 1.304 1.30392c0 .719-.585 1.3039-1.304 1.3039zm-5.6883 1.1895c-1.754 0-3.1822 1.4275-3.1822 3.1815 0 1.7548 1.4282 3.183 3.1822 3.183 1.7548 0 3.1823-1.4282 3.1823-3.183 0-1.754-1.4275-3.1815-3.1823-3.1815zm-15.9996-12.8181v32h32v-32zm26.6986 21.301c0 2.9765-2.4211 5.3976-5.3976 5.3976h-10.602c-2.97653 0-5.39762-2.4211-5.39762-5.3976v-10.602c0-2.97653 2.42109-5.39762 5.39762-5.39762h10.602c2.9765 0 5.3976 2.42109 5.3976 5.39762zm-5.3976-13.67122h-10.602c-1.69226 0-3.06922 1.37696-3.06922 3.06922v10.602c0 1.6923 1.37696 3.0692 3.06922 3.0692h10.602c1.6923 0 3.0692-1.3769 3.0692-3.0692v-10.602c0-1.69226-1.3769-3.06922-3.0692-3.06922zm-5.3014 13.88122c-3.0382 0-5.5106-2.4724-5.5106-5.5114 0-3.0382 2.4724-5.5106 5.5106-5.5106 3.039 0 5.5114 2.4724 5.5114 5.5106 0 3.039-2.4724 5.5114-5.5114 5.5114zm5.6883-9.8824c-.719 0-1.3039-.5849-1.3039-1.3039 0-.71901.5849-1.30392 1.3039-1.30392s1.304.58491 1.304 1.30392c0 .719-.585 1.3039-1.304 1.3039zm-5.6883 1.1895c-1.754 0-3.1822 1.4275-3.1822 3.1815 0 1.7548 1.4282 3.183 3.1822 3.183 1.7548 0 3.1823-1.4282 3.1823-3.183 0-1.754-1.4275-3.1815-3.1823-3.1815zm0 0c-1.754 0-3.1822 1.4275-3.1822 3.1815 0 1.7548 1.4282 3.183 3.1822 3.183 1.7548 0 3.1823-1.4282 3.1823-3.183 0-1.754-1.4275-3.1815-3.1823-3.1815zm0 0c-1.754 0-3.1822 1.4275-3.1822 3.1815 0 1.7548 1.4282 3.183 3.1822 3.183 1.7548 0 3.1823-1.4282 3.1823-3.183 0-1.754-1.4275-3.1815-3.1823-3.1815zm5.3014-5.18832h-10.602c-1.69226 0-3.06922 1.37696-3.06922 3.06922v10.602c0 1.6923 1.37696 3.0692 3.06922 3.0692h10.602c1.6923 0 3.0692-1.3769 3.0692-3.0692v-10.602c0-1.69226-1.3769-3.06922-3.0692-3.06922zm-5.3014 13.88122c-3.0382 0-5.5106-2.4724-5.5106-5.5114 0-3.0382 2.4724-5.5106 5.5106-5.5106 3.039 0 5.5114 2.4724 5.5114 5.5106 0 3.039-2.4724 5.5114-5.5114 5.5114zm5.6883-9.8824c-.719 0-1.3039-.5849-1.3039-1.3039 0-.71901.5849-1.30392 1.3039-1.30392s1.304.58491 1.304 1.30392c0 .719-.585 1.3039-1.304 1.3039zm-5.6883 1.1895c-1.754 0-3.1822 1.4275-3.1822 3.1815 0 1.7548 1.4282 3.183 3.1822 3.183 1.7548 0 3.1823-1.4282 3.1823-3.183 0-1.754-1.4275-3.1815-3.1823-3.1815zm0 0c-1.754 0-3.1822 1.4275-3.1822 3.1815 0 1.7548 1.4282 3.183 3.1822 3.183 1.7548 0 3.1823-1.4282 3.1823-3.183 0-1.754-1.4275-3.1815-3.1823-3.1815zm0 0c-1.754 0-3.1822 1.4275-3.1822 3.1815 0 1.7548 1.4282 3.183 3.1822 3.183 1.7548 0 3.1823-1.4282 3.1823-3.183 0-1.754-1.4275-3.1815-3.1823-3.1815zm5.3014-5.18832h-10.602c-1.69226 0-3.06922 1.37696-3.06922 3.06922v10.602c0 1.6923 1.37696 3.0692 3.06922 3.0692h10.602c1.6923 0 3.0692-1.3769 3.0692-3.0692v-10.602c0-1.69226-1.3769-3.06922-3.0692-3.06922zm-5.3014 13.88122c-3.0382 0-5.5106-2.4724-5.5106-5.5114 0-3.0382 2.4724-5.5106 5.5106-5.5106 3.039 0 5.5114 2.4724 5.5114 5.5106 0 3.039-2.4724 5.5114-5.5114 5.5114zm5.6883-9.8824c-.719 0-1.3039-.5849-1.3039-1.3039 0-.71901.5849-1.30392 1.3039-1.30392s1.304.58491 1.304 1.30392c0 .719-.585 1.3039-1.304 1.3039zm-5.6883 1.1895c-1.754 0-3.1822 1.4275-3.1822 3.1815 0 1.7548 1.4282 3.183 3.1822 3.183 1.7548 0 3.1823-1.4282 3.1823-3.183 0-1.754-1.4275-3.1815-3.1823-3.1815z" fill="#fff"></path></svg>