<svg xmlns="http://www.w3.org/2000/svg" width="35" height="34" viewBox="0 0 35 34" fill="none">
    <path
        d="M25.1453 31.1577C19.365 31.1502 13.8237 28.8508 9.7365 24.7635C5.64927 20.6763 3.34978 15.135 3.34229 9.35478C3.34229 7.62753 4.02843 5.97104 5.24977 4.74969C6.47112 3.52835 8.12762 2.8422 9.85486 2.8422C10.2206 2.83942 10.5858 2.87261 10.945 2.94131C11.2923 2.9927 11.6337 3.07806 11.9644 3.19615C12.1969 3.27774 12.4041 3.41861 12.5655 3.60484C12.7269 3.79107 12.8369 4.01621 12.8846 4.25798L14.8242 12.7526C14.8765 12.9832 14.8702 13.2232 14.8059 13.4507C14.7416 13.6783 14.6214 13.8861 14.4561 14.0552C14.2721 14.2534 14.2579 14.2675 12.5165 15.1736C13.9111 18.2329 16.3578 20.6897 19.4114 22.0968C20.3316 20.3412 20.3458 20.327 20.544 20.143C20.7131 19.9778 20.9209 19.8575 21.1484 19.7932C21.3759 19.7289 21.6159 19.7226 21.8465 19.7749L30.3412 21.7145C30.5752 21.7688 30.7916 21.8818 30.9699 22.0428C31.1482 22.2038 31.2826 22.4075 31.3605 22.6348C31.48 22.9708 31.57 23.3166 31.6295 23.6683C31.6865 24.0241 31.7149 24.3839 31.7145 24.7443C31.6883 26.4641 30.9829 28.1038 29.7521 29.3054C28.5214 30.507 26.8652 31.1729 25.1453 31.1577ZM9.85486 5.67376C8.87974 5.67749 7.94562 6.0665 7.2561 6.75602C6.56659 7.44554 6.17757 8.37966 6.17384 9.35478C6.17759 14.3852 8.17756 19.2084 11.7346 22.7654C15.2916 26.3225 20.1149 28.3224 25.1453 28.3262C26.1204 28.3225 27.0545 27.9334 27.744 27.2439C28.4335 26.5544 28.8225 25.6203 28.8263 24.6452V24.178L22.2571 22.6631L21.8465 23.4418C21.2094 24.6735 20.7422 25.5654 19.5529 25.0841C17.2068 24.2443 15.0772 22.8925 13.3189 21.1268C11.5605 19.3611 10.2176 17.2259 9.38765 14.8763C8.87797 13.772 9.8407 13.2623 11.0583 12.6252L11.8369 12.243L10.3221 5.67376H9.85486Z"
        fill="white" />
</svg>