<svg xmlns="http://www.w3.org/2000/svg" width="33" height="32" viewBox="0 0 33 32" fill="none">
    <path d="M16.5 3.02209C13.7644 3.02196 11.1392 4.10155 9.19506 6.02622C7.25095 7.95089 6.14503 10.5651 6.11768 13.3006C6.11768 20.4126 15.2671 28.3291 15.6565 28.6665C15.8915 28.8676 16.1907 28.9781 16.5 28.9781C16.8094 28.9781 17.1085 28.8676 17.3436 28.6665C17.7978 28.3291 26.8824 20.4126 26.8824 13.3006C26.855 10.5651 25.7491 7.95089 23.805 6.02622C21.8609 4.10155 19.2357 3.02196 16.5 3.02209ZM16.5 25.9282C14.3327 23.8647 8.71327 18.1414 8.71327 13.3006C8.71327 11.2355 9.53366 9.25486 10.994 7.79456C12.4543 6.33425 14.4349 5.51386 16.5 5.51386C18.5652 5.51386 20.5458 6.33425 22.0061 7.79456C23.4664 9.25486 24.2868 11.2355 24.2868 13.3006C24.2868 18.1025 18.6674 23.8647 16.5 25.9282Z" fill="white"/>
    <path d="M16.4998 8.21326C15.6014 8.21326 14.7232 8.47966 13.9762 8.97877C13.2293 9.47788 12.6471 10.1873 12.3033 11.0173C11.9595 11.8473 11.8695 12.7606 12.0448 13.6417C12.2201 14.5228 12.6527 15.3322 13.2879 15.9674C13.9232 16.6027 14.7325 17.0353 15.6137 17.2105C16.4948 17.3858 17.4081 17.2959 18.2381 16.9521C19.0681 16.6083 19.7775 16.0261 20.2766 15.2791C20.7757 14.5321 21.0421 13.6539 21.0421 12.7555C21.0421 11.5509 20.5635 10.3955 19.7117 9.54366C18.8598 8.69182 17.7045 8.21326 16.4998 8.21326ZM16.4998 14.7022C16.1148 14.7022 15.7384 14.5881 15.4183 14.3742C15.0982 14.1603 14.8486 13.8562 14.7013 13.5005C14.554 13.1448 14.5154 12.7534 14.5905 12.3758C14.6656 11.9981 14.851 11.6513 15.1233 11.379C15.3955 11.1068 15.7424 10.9214 16.12 10.8463C16.4976 10.7711 16.8891 10.8097 17.2448 10.957C17.6005 11.1044 17.9045 11.3539 18.1184 11.674C18.3323 11.9941 18.4465 12.3705 18.4465 12.7555C18.4465 13.2718 18.2414 13.767 17.8763 14.1321C17.5113 14.4971 17.0161 14.7022 16.4998 14.7022Z" fill="white"/>
  </svg>