<svg xmlns="http://www.w3.org/2000/svg" width="19" height="17" viewBox="0 0 19 17" fill="none">
    <g clip-path="url(#clip0_3139_20020)">
      <path d="M16.4765 6.90819L15.1729 13.4263C15.012 14.2304 14.9316 14.6325 14.7217 14.9332C14.5366 15.1984 14.2817 15.4073 13.9854 15.5368C13.6493 15.6837 13.2393 15.6837 12.4192 15.6837H6.4929C5.67285 15.6837 5.26283 15.6837 4.92675 15.5368C4.63039 15.4073 4.37557 15.1984 4.19044 14.9332C3.98051 14.6325 3.9001 14.2304 3.73927 13.4263L2.43566 6.90819M16.4765 6.90819H14.7214M16.4765 6.90819H17.354M2.43566 6.90819H1.55811M2.43566 6.90819H4.19076M14.7214 6.90819H4.19076M14.7214 6.90819L12.0887 1.64288M4.19076 6.90819L6.82341 1.64288M6.82341 9.54084V12.1735M9.45606 9.54084V12.1735M12.0887 9.54084V12.1735" stroke="black" stroke-width="1.73737" stroke-linecap="round" stroke-linejoin="round"/>
    </g>
    <defs>
      <clipPath id="clip0_3139_20020">
        <rect width="18" height="16.1633" fill="white" transform="translate(0.456055 0.418396)"/>
      </clipPath>
    </defs>
  </svg>