<svg xmlns="http://www.w3.org/2000/svg" width="19" height="19" viewBox="0 0 19 19" fill="none">
    <g clip-path="url(#clip0_3139_20026)">
      <path d="M4.51807 11.9038L4.56178 12.0272C4.55618 12.013 4.54019 11.9699 4.51807 11.9038ZM6.24796 9.10686C6.32473 8.44369 6.58541 8.07239 7.07666 7.69176C7.77955 7.17625 8.65756 7.46786 8.65756 7.46786V5.73796C8.87101 5.73227 9.08455 5.74547 9.29568 5.77741V8.00362C9.29568 8.00362 8.41793 7.71202 7.71505 8.22779C7.22406 8.60815 6.96285 8.97972 6.88635 9.64289C6.88395 10.003 6.94872 10.4737 7.24699 10.8807C7.17324 10.8413 7.09808 10.7963 7.02149 10.7459C6.36445 10.2855 6.24477 9.59491 6.24796 9.10686ZM12.921 2.53938C12.4375 1.98656 12.2546 1.42841 12.1885 1.03632H12.7968C12.7968 1.03632 12.6755 2.06439 13.5594 3.07541L13.5716 3.089C13.3334 2.93266 13.115 2.74812 12.921 2.53938ZM15.8512 4.10668V6.28812C15.8512 6.28812 15.075 6.2564 14.5006 6.10393C13.6985 5.89069 13.183 5.56364 13.183 5.56364C13.183 5.56364 12.8269 5.33041 12.7981 5.31415V9.81881C12.7981 10.0696 12.7323 10.696 12.5316 11.2185C12.2696 11.9019 11.8652 12.3505 11.7908 12.4422C11.7908 12.4422 11.2991 13.0486 10.4314 13.4569C9.64939 13.8253 8.96276 13.816 8.75751 13.8253C8.75751 13.8253 7.57058 13.8743 6.50252 13.1501C6.27156 12.9905 6.05597 12.8097 5.85854 12.6101L5.86387 12.6141C6.93219 13.3383 8.11887 13.2893 8.11887 13.2893C8.32437 13.2799 9.011 13.2893 9.79279 12.9209C10.6596 12.5125 11.1522 11.9062 11.1522 11.9062C11.2258 11.8145 11.632 11.3659 11.8929 10.6822C12.0931 10.16 12.1595 9.53334 12.1595 9.28252V4.77839C12.1883 4.79491 12.5441 5.02814 12.5441 5.02814C12.5441 5.02814 13.0599 5.35546 13.8619 5.56844C14.4366 5.7209 15.2125 5.75262 15.2125 5.75262V4.04325C15.478 4.10535 15.7043 4.12214 15.8512 4.10668Z" fill="#EE1D52"/>
      <path d="M15.2126 4.04325V5.75209C15.2126 5.75209 14.4367 5.72037 13.862 5.5679C13.06 5.35466 12.5442 5.02761 12.5442 5.02761C12.5442 5.02761 12.1884 4.79438 12.1596 4.77785V9.28305C12.1596 9.53387 12.0937 10.1605 11.893 10.6827C11.631 11.3664 11.2267 11.815 11.1523 11.9067C11.1523 11.9067 10.6602 12.5131 9.7929 12.9214C9.01112 13.2898 8.32449 13.2805 8.11898 13.2898C8.11898 13.2898 6.93231 13.3388 5.86398 12.6146L5.85865 12.6106C5.74586 12.4967 5.63969 12.3764 5.54066 12.2503C5.19974 11.8166 4.99077 11.3038 4.93826 11.1574C4.93817 11.1568 4.93817 11.1562 4.93826 11.1556C4.85376 10.9013 4.67624 10.2906 4.7005 9.69913C4.74341 8.6556 5.09526 8.01508 5.18828 7.85462C5.43465 7.41704 5.75509 7.02554 6.13533 6.69753C6.47087 6.41449 6.85119 6.18929 7.26069 6.03116C7.70338 5.8455 8.17743 5.74599 8.65741 5.73796V7.46786C8.65741 7.46786 7.7794 7.17732 7.07677 7.69176C6.58553 8.07239 6.32484 8.44369 6.24808 9.10686C6.24488 9.59491 6.36456 10.2855 7.02107 10.7461C7.09765 10.7968 7.17282 10.8417 7.24657 10.881C7.36126 11.0366 7.50085 11.1721 7.65972 11.2822C8.30103 11.7057 8.83839 11.7353 9.52555 11.4602C9.98375 11.2763 10.3287 10.8618 10.4886 10.4026C10.5891 10.1157 10.5877 9.82708 10.5877 9.52854V1.03632H12.187C12.2531 1.42841 12.436 1.98656 12.9195 2.53938C13.1135 2.74812 13.3319 2.93266 13.5702 3.089C13.6405 3.16497 14.0004 3.54054 14.4623 3.7711C14.7011 3.89028 14.9529 3.98159 15.2126 4.04325Z" fill="black"/>
      <path d="M4.30176 10.6262V10.6275L4.34121 10.7397C4.33668 10.7266 4.32202 10.6869 4.30176 10.6262Z" fill="#69C9D0"/>
      <path d="M7.26085 6.03116C6.85134 6.18928 6.47102 6.41449 6.13548 6.69753C5.75512 7.02628 5.43476 7.4186 5.1887 7.85701C5.09568 8.01694 4.74383 8.65799 4.70092 9.70153C4.67666 10.293 4.85418 10.9037 4.93868 11.1579C4.93859 11.1586 4.93859 11.1592 4.93868 11.1598C4.99199 11.3048 5.20016 11.8177 5.54108 12.2527C5.64011 12.3788 5.74628 12.4991 5.85907 12.613C5.49768 12.3631 5.17538 12.0609 4.90269 11.7164C4.56471 11.2864 4.35627 10.7789 4.3019 10.6291C4.30183 10.628 4.30183 10.627 4.3019 10.6259V10.624C4.21713 10.37 4.03908 9.7591 4.06387 9.16683C4.10678 8.12329 4.45863 7.48278 4.55165 7.32232C4.79764 6.88386 5.11801 6.49152 5.49843 6.16283C5.8339 5.87969 6.21424 5.65448 6.6238 5.49646C6.87926 5.39047 7.14538 5.31228 7.41758 5.26323C7.82779 5.19163 8.24674 5.18542 8.65889 5.24484V5.73795C8.17846 5.74581 7.70395 5.84533 7.26085 6.03116Z" fill="#69C9D0"/>
      <path d="M12.1886 1.0363H10.5893V9.52879C10.5893 9.82732 10.5893 10.1152 10.4902 10.4028C10.3286 10.8618 9.98505 11.2763 9.52712 11.4602C8.8397 11.7363 8.30233 11.7057 7.66129 11.2821C7.50215 11.1726 7.3622 11.0375 7.24707 10.8823C7.79323 11.1737 8.28208 11.1686 8.88767 10.9255C9.34534 10.7416 9.68945 10.3271 9.85045 9.86784C9.9512 9.58103 9.94987 9.29236 9.94987 8.99409V0.5H12.1582C12.1582 0.5 12.1334 0.711106 12.1886 1.0363ZM15.2129 3.57064V4.04322C14.9536 3.98148 14.7023 3.89016 14.4639 3.77108C14.0019 3.54052 13.6421 3.16495 13.5717 3.08898C13.6534 3.14259 13.7381 3.19137 13.8255 3.23505C14.3871 3.51546 14.9402 3.59916 15.2129 3.57064Z" fill="#69C9D0"/>
      <path d="M12.2438 17.1403C12.2436 17.2011 12.2526 17.2616 12.2705 17.3197C12.2713 17.3238 12.2726 17.3278 12.2742 17.3317C12.3168 17.4692 12.4023 17.5894 12.5182 17.6748C12.634 17.7602 12.7742 17.8062 12.9182 17.8062V18.4883C12.586 18.4883 12.3483 18.5 11.9852 18.2859C11.5737 18.0418 11.3418 17.5953 11.3418 17.1318C11.3418 16.6536 11.6014 16.1746 12.0415 15.9438C12.3613 15.7764 12.6036 15.7753 12.919 15.7753V16.4572C12.74 16.4572 12.5684 16.5282 12.4419 16.6548C12.3154 16.7813 12.2443 16.9529 12.2443 17.1318L12.2438 17.1403Z" fill="#69C9D0"/>
      <path d="M13.5977 17.1403C13.5977 17.2011 13.5888 17.2616 13.5711 17.3197C13.5711 17.3237 13.5687 17.3277 13.5673 17.3317C13.5247 17.4692 13.4391 17.5894 13.3233 17.6747C13.2074 17.7601 13.0673 17.8061 12.9233 17.8062V18.4883C13.2552 18.4883 13.4932 18.5 13.8549 18.2859C14.2678 18.0418 14.5002 17.5953 14.5002 17.1318C14.5002 16.6536 14.2406 16.1746 13.8006 15.9438C13.4807 15.7764 13.2384 15.7753 12.9233 15.7753V16.4572C13.1022 16.4572 13.2737 16.5283 13.4002 16.6548C13.5267 16.7814 13.5977 16.9529 13.5977 17.1318V17.1403Z" fill="#EE1D52"/>
      <path d="M2.479 15.1567H4.97683L4.746 15.8438H4.09135V18.4739H3.28824V15.8438H2.479V15.1567ZM9.09873 15.1567V15.8438H9.90797V18.4739H10.7121V15.8438H11.3657L11.5966 15.1567H9.09873ZM5.52032 15.9398C5.59729 15.9397 5.67251 15.9169 5.73648 15.8741C5.80045 15.8313 5.85029 15.7704 5.87969 15.6993C5.9091 15.6282 5.91675 15.5499 5.90168 15.4745C5.88662 15.399 5.8495 15.3297 5.79504 15.2753C5.74058 15.2209 5.67121 15.1839 5.59571 15.1689C5.52021 15.1539 5.44197 15.1617 5.37088 15.1912C5.29979 15.2207 5.23905 15.2706 5.19633 15.3347C5.15361 15.3987 5.13084 15.4739 5.13089 15.5509C5.13089 15.602 5.14097 15.6526 5.16055 15.6998C5.18012 15.7471 5.20882 15.79 5.24498 15.8261C5.28115 15.8622 5.32409 15.8908 5.37133 15.9103C5.41858 15.9299 5.4692 15.9399 5.52032 15.9398ZM5.13089 18.4739H5.91934V16.2149H5.13089V18.4739ZM8.75595 15.9201H7.83369L7.03884 16.7149V15.1593H6.25546L6.25306 18.4739H7.04391V17.6103L7.28993 17.3861L8.05759 18.4728H8.90308L7.79104 16.8836L8.75595 15.9201ZM16.3198 16.8842L17.2839 15.9201H16.3619L15.5668 16.7149V15.1593H14.7837L14.7799 18.4739H15.5711V17.6103L15.8195 17.3861L16.5871 18.4728H17.4329L16.3198 16.8842ZM14.2924 17.1313C14.2924 17.8803 13.677 18.4877 12.9178 18.4877C12.1587 18.4877 11.5432 17.8803 11.5432 17.1313C11.5432 16.3823 12.1587 15.7748 12.9178 15.7748C13.677 15.7748 14.2924 16.3825 14.2924 17.1318V17.1313ZM13.5922 17.1313C13.5922 16.9979 13.5526 16.8675 13.4785 16.7566C13.4044 16.6457 13.2991 16.5593 13.1759 16.5082C13.0527 16.4572 12.9171 16.4438 12.7863 16.4699C12.6555 16.4959 12.5353 16.5601 12.441 16.6544C12.3467 16.7487 12.2824 16.8689 12.2564 16.9997C12.2304 17.1305 12.2438 17.2661 12.2948 17.3893C12.3458 17.5126 12.4323 17.6179 12.5432 17.692C12.6541 17.7661 12.7845 17.8056 12.9178 17.8056C13.0966 17.8056 13.268 17.7347 13.3945 17.6083C13.5209 17.482 13.5921 17.3106 13.5922 17.1318V17.1313Z" fill="black"/>
    </g>
    <defs>
      <clipPath id="clip0_3139_20026">
        <rect width="18" height="18" fill="white" transform="translate(0.956055 0.5)"/>
      </clipPath>
    </defs>
  </svg>