<svg xmlns="http://www.w3.org/2000/svg" width="19" height="19" viewBox="0 0 19 19" fill="none">
    <path d="M16.4873 2.1875H2.4248C2.05184 2.1875 1.69416 2.33566 1.43044 2.59938C1.16671 2.8631 1.01855 3.22079 1.01855 3.59375V4.8425C1.40344 4.49323 1.90507 4.3006 2.4248 4.3025V3.59375H16.4873V4.3025C17.007 4.3006 17.5087 4.49323 17.8936 4.8425V3.59375C17.8936 3.22079 17.7454 2.8631 17.4817 2.59938C17.218 2.33566 16.8603 2.1875 16.4873 2.1875ZM16.4873 5H2.4248C2.05184 5 1.69416 5.14816 1.43044 5.41188C1.16671 5.6756 1.01855 6.03329 1.01855 6.40625V7.655C1.40344 7.30573 1.90507 7.1131 2.4248 7.115V6.40625H16.4873V7.115C17.007 7.1131 17.5087 7.30573 17.8936 7.655V6.40625C17.8936 6.03329 17.7454 5.6756 17.4817 5.41188C17.218 5.14816 16.8603 5 16.4873 5ZM16.4873 7.8125H12.2686C12.2421 8.53368 11.9316 9.21515 11.4048 9.7083C10.8779 10.2015 10.1774 10.4663 9.45605 10.445C8.73471 10.4663 8.03421 10.2015 7.50734 9.7083C6.98047 9.21515 6.66997 8.53368 6.64355 7.8125H2.4248C2.05184 7.8125 1.69416 7.96066 1.43044 8.22438C1.16671 8.4881 1.01855 8.84579 1.01855 9.21875V15.4062C1.01855 15.7792 1.16671 16.1369 1.43044 16.4006C1.69416 16.6643 2.05184 16.8125 2.4248 16.8125H16.4873C16.8603 16.8125 17.218 16.6643 17.4817 16.4006C17.7454 16.1369 17.8936 15.7792 17.8936 15.4062V9.21875C17.8936 8.84579 17.7454 8.4881 17.4817 8.22438C17.218 7.96066 16.8603 7.8125 16.4873 7.8125ZM16.4873 15.4062H2.4248V9.21875H5.49605C5.81624 10.0039 6.365 10.6747 7.07113 11.1441C7.77726 11.6135 8.60817 11.8599 9.45605 11.8512C10.3043 11.8614 11.1359 11.6157 11.8423 11.1461C12.5487 10.6765 13.0972 10.0048 13.4161 9.21875H16.4873V15.4062Z" fill="black"/>
    </svg>