<svg fill="none" height="26" viewBox="0 0 114 26" width="114" xmlns="http://www.w3.org/2000/svg"><path d="m19.3885 5.87449h-11.73334c-.91591.1222-1.65145.85765-1.77356 1.773v10.65041c.12211.9165.85765 1.6519 1.77356 1.7741h11.73334c.903 0 1.6463-.7343 1.657-1.6372-.0107-.8814-.754-1.6168-1.657-1.6168h-6.95c-2.1205 0-3.84569-1.7244-3.84569-3.8447 0-2.1215 1.72519-3.84587 3.84569-3.84587h6.95c.903 0 1.6463-.73432 1.657-1.63722-.0107-.8814-.754-1.61572-1.657-1.61572" fill="#efc11b"></path><path d="m25.0949 13.5662-.5113-.5929.5113-.594c1.1456-1.3295 1.7933-3.02554 1.8238-4.77591l.0012-.13351-.001-.06449c-.0711-4.08683-3.4489-7.40539421-7.5299-7.40539421h-15.3242-2.02836-2.03644v3.22465421h.00782265l-.00137013 4.19771c-.00225399.03734-.0044195.07468-.00645252.11202l.00822034.38695v3.42497h4.06015966l.0019-3.85266c.19781-1.7911 1.64072-3.23371 3.43071-3.43171l.09994-.00566h11.78807c1.8934 0 3.4519 1.53992 3.4742 3.43398-.0223 1.91442-1.5808 3.45435-3.4742 3.45435h-6.95c-1.1184 0-2.0284.9097-2.0284 2.0287 0 1.1179.91 2.0276 2.0284 2.0276h6.95c1.8934 0 3.4519 1.5399 3.4742 3.4339-.0223 1.9145-1.5808 3.4544-3.4742 3.4544l-11.88801-.0057c-1.78992-.198-3.23272-1.6406-3.43071-3.4306l-.00548-.1007.0019-3.753h-4.05847966v3.9522 4.1785h-.00822034v3.2235h4.0648v-.0068l3.36584.0011c.03738.0023.07478.0045.1123.0057l.38666-.008h11.4594c4.0806 0 7.4583-3.3185 7.5297-7.3974l.0012-.1335-.001-.0645c-.0308-1.7583-.6784-3.4544-1.824-4.7838" fill="#fff"></path><path d="m35.6323 13.0015h2.9114c.2495 0 .502-.0282.7591-.0837.2561-.0554.4885-.1527.6966-.2908.2081-.1391.3778-.319.5096-.5408.1313-.2218.1975-.4922.1975-.8113 0-.3462-.0869-.6268-.2601-.8429-.1733-.2138-.392-.3768-.6551-.48765-.2632-.11202-.5476-.18783-.8527-.2297-.305-.04186-.5894-.06223-.8525-.06223h-2.4538zm0-6.09399h2.3497c.2495 0 .4956-.02715.7385-.08259.2424-.05658.4607-.14709.655-.27155.1941-.12446.3501-.2908.4678-.49898.1177-.20819.1768-.45824.1768-.74902 0-.30436-.0656-.55782-.1975-.75921-.1318-.20027-.3016-.35641-.5096-.46729-.2076-.11089-.4435-.19009-.7071-.23988-.2632-.04865-.5198-.0724-.7694-.0724h-2.2042zm-3.2442-5.88585h5.4898c.638 0 1.2795.04414 1.924.13465.6445.09052 1.2233.27042 1.7366.54084.5126.27042.9287.64832 1.2474 1.13372.3188.4854.4784 1.13032.4784 1.93365 0 .83163-.2323 1.52182-.6965 2.06945-.4647.54875-1.0784.94024-1.8406 1.17558v.04186c.4854.06902.9253.2048 1.3208.40507.395.2014.7344.45711 1.0189.76939.2838.31228.5025.67661.6551 1.09183.1525.4164.2287.8599.2287 1.3317 0 .7762-.1661 1.4246-.4989 1.945-.333.5194-.7628.938-1.2896 1.2582-.5268.3179-1.1198.5476-1.778.6857-.6586.1391-1.3137.2082-1.9653.2082h-6.0308z" fill="#fff"></path><path d="m51.9571 5.30537-1.7885 4.57561h3.5978zm-1.2475-4.28371h2.6825l6.4056 14.72484h-3.6604l-1.2683-3.1195h-5.7193l-1.2268 3.1195h-3.577z" fill="#fff"></path><path d="m64.5189 7.1157h1.9132c.2909 0 .5996-.01132.9254-.03169.3252-.02036.6202-.08373.8838-.18669.2632-.10409.4814-.26702.6552-.48992.1732-.22176.2596-.53292.2596-.93571 0-.37452-.0763-.67209-.2288-.89386-.1525-.22176-.3466-.39148-.5819-.50915-.2363-.11767-.5065-.198-.8112-.23986-.305-.04187-.603-.06223-.8945-.06223h-2.1208zm-3.2443-6.09404h5.698c.7485 0 1.4593.07242 2.1314.21725.6724.14709 1.2618.38922 1.768.72866.506.33944.908.79768 1.206 1.37246.298.57591.4471 1.29325.4471 2.15203 0 1.04094-.2702 1.9246-.8107 2.65213-.5409.72866-1.3309 1.18916-2.371 1.38377l3.7433 6.21854h-3.8887l-3.0781-5.88589h-1.601v5.88589h-3.2443z" fill="#fff"></path><path d="m77.9945 13.0015h2.9115c.2494 0 .502-.0282.759-.0837.2561-.0554.4885-.1527.6966-.2908.2081-.1391.3778-.319.5096-.5408.1314-.2218.1976-.4922.1976-.8113 0-.3462-.087-.6268-.2603-.8429-.1732-.2138-.3919-.3768-.655-.48765-.2632-.11202-.5475-.18783-.8527-.2297-.305-.04186-.5894-.06223-.8525-.06223h-2.4538zm0-6.09399h2.3497c.2495 0 .4956-.02715.7385-.08259.2425-.05658.4606-.14709.6551-.27155.1939-.12446.35-.2908.4677-.49898.1177-.20819.1767-.45824.1767-.74902 0-.30436-.0656-.55782-.1975-.75921-.1318-.20027-.3015-.35641-.5096-.46729-.2076-.11089-.4435-.19009-.7071-.23988-.2632-.04865-.5197-.0724-.7693-.0724h-2.2042zm-3.2443-5.88585h5.4899c.6379 0 1.2794.04414 1.924.13465.6444.09052 1.2233.27042 1.7365.54084.5127.27042.9289.64832 1.2476 1.13372s.4783 1.13032.4783 1.93365c0 .83163-.2322 1.52182-.6966 2.06945-.4645.54875-1.0783.94024-1.8405 1.17558v.04186c.4853.06902.9253.2048 1.3208.40507.3949.2014.7344.45711 1.0188.76939.2839.31228.5027.67661.6551 1.09183.1526.4164.2289.8599.2289 1.3317 0 .7762-.1662 1.4246-.4991 1.945-.3329.5194-.7627.938-1.2895 1.2582-.5268.3179-1.1197.5476-1.778.6857-.6586.1391-1.3136.2082-1.9653.2082h-6.0309z" fill="#fff"></path><path d="m88.3511 1.02166h10.003v2.99498h-6.7587v2.74491h6.3845v2.99497h-6.3845v2.99498h7.133v2.995h-10.3773z" fill="#fff"></path><path d="m104.573 7.1157h1.913c.291 0 .599-.01132.925-.03169.326-.02036.621-.08373.884-.18669.263-.10409.482-.26702.655-.48992.174-.22176.26-.53292.26-.93571 0-.37452-.076-.67209-.229-.89386-.152-.22176-.346-.39148-.582-.50915s-.506-.198-.811-.23986c-.305-.04187-.603-.06223-.895-.06223h-2.12zm-3.245-6.09404h5.698c.749 0 1.46.07242 2.132.21725.672.14709 1.262.38922 1.768.72866s.908.79768 1.206 1.37246c.298.57591.447 1.29325.447 2.15203 0 1.04094-.27 1.9246-.811 2.65213-.541.72866-1.331 1.18916-2.371 1.38377l3.744 6.21854h-3.889l-3.078-5.88589h-1.601v5.88589h-3.245z" fill="#fff"></path><g fill="#efc11b"><path d="m36.9884 20.1153c-.1562-.1901-.3481-.3361-.5759-.4379s-.4909-.1527-.7894-.1527c-.299 0-.5759.0577-.8305.1731-.255.1154-.4757.2761-.6626.4842-.1868.2071-.3329.4526-.4379.7389-.1055.284-.1582.594-.1582.9267 0 .3394.0527.6505.1582.9323.105.2817.2495.5272.4329.7343.1833.207.3989.3677.6469.4831.248.1166.5148.1731.8002.1731.3257 0 .6147-.0667.8662-.2036.251-.1358.4581-.3259.6213-.5703l1.3249.9889c-.3057.4277-.6931.7434-1.1618.947-.4688.2037-.9511.3055-1.4471.3055-.5637 0-1.0834-.0882-1.5587-.2647-.4759-.1765-.8865-.4288-1.2329-.7592-.3466-.3293-.6168-.7287-.8102-1.1971-.1935-.4684-.2905-.9912-.2905-1.5693 0-.5771.097-1.0998.2905-1.5694.1934-.4684.4636-.8678.8102-1.1971.3464-.3292.757-.5827 1.2329-.7592.4753-.1765.995-.2647 1.5587-.2647.2041 0 .4162.0181.6369.0554s.4385.0973.6521.1788c.2142.0814.4198.1901.6167.3258.197.1358.3733.3021.5299.499z"></path><path d="m40.5143 21.8476c0 .3394.0525.6505.1581.9323.1051.2817.256.5272.4535.7343.1966.207.4329.3677.7082.4831.2748.1166.5824.1731.9218.1731.3399 0 .6471-.0565.9224-.1731.2752-.1154.511-.2761.708-.4831.1971-.2071.3481-.4526.4536-.7343.1051-.2818.1582-.5929.1582-.9323 0-.3327-.0531-.6427-.1582-.9267-.1055-.2863-.2565-.5318-.4536-.7389-.197-.2081-.4328-.3688-.708-.4842-.2753-.1154-.5825-.1731-.9224-.1731-.3394 0-.647.0577-.9218.1731-.2753.1154-.5116.2761-.7082.4842-.1975.2071-.3484.4526-.4535.7389-.1056.284-.1581.594-.1581.9267zm-1.6507 0c0-.5771.097-1.0998.2904-1.5694.1935-.4684.4637-.8678.8102-1.1971.3466-.3292.7571-.5827 1.233-.7592.4753-.1765.995-.2647 1.5587-.2647.5642 0 1.0834.0882 1.5592.2647.4753.1765.8865.43 1.233.7592.3465.3293.6167.7287.8101 1.1971.1935.4696.2905.9923.2905 1.5694 0 .5781-.097 1.1009-.2905 1.5693-.1934.4684-.4636.8678-.8101 1.1971-.3465.3304-.7577.5827-1.233.7592-.4758.1765-.995.2647-1.5592.2647-.5637 0-1.0834-.0882-1.5587-.2647-.4759-.1765-.8864-.4288-1.233-.7592-.3465-.3293-.6167-.7287-.8102-1.1971-.1934-.4684-.2904-.9912-.2904-1.5693"></path><path d="m47.7284 18.2404h2.1598l3.0674 5.0135h.0203v-5.0135h1.5895v7.2142h-2.0784l-3.1488-5.1357h-.0202v5.1357h-1.5896z"></path><path d="m56.0329 18.2404h2.1599l3.0675 5.0135h.0202v-5.0135h1.5895v7.2142h-2.0785l-3.1488-5.1357h-.0201v5.1357h-1.5897z"></path><path d="m64.3986 18.2404h4.901v1.4675h-3.3115v1.3453h3.1281v1.4664h-3.1281v1.4675h3.4948v1.4675h-5.0843z"></path><path d="m75.4749 20.1153c-.156-.1901-.3479-.3361-.5758-.4379-.2278-.1018-.491-.1527-.7895-.1527-.299 0-.5758.0577-.8304.1731-.2549.1154-.4758.2761-.6627.4842-.1868.2071-.3327.4526-.4378.7389-.1056.284-.1582.594-.1582.9267 0 .3394.0526.6505.1582.9323.1051.2817.2494.5272.4328.7343.1833.207.399.3677.6471.4831.2479.1166.5147.1731.8.1731.3259 0 .6147-.0667.8662-.2036.2511-.1358.4581-.3259.6214-.5703l1.3249.9889c-.3057.4277-.693.7434-1.1618.947-.4688.2037-.951.3055-1.4471.3055-.5636 0-1.0835-.0882-1.5587-.2647-.4758-.1765-.8864-.4288-1.233-.7592-.3464-.3293-.6167-.7287-.8102-1.1971-.1934-.4684-.2903-.9912-.2903-1.5693 0-.5771.0969-1.0998.2903-1.5694.1935-.4684.4638-.8678.8102-1.1971.3466-.3292.7572-.5827 1.233-.7592.4752-.1765.9951-.2647 1.5587-.2647.2041 0 .4162.0181.6369.0554.2208.0373.4385.0973.6522.1788.214.0814.4196.1901.6166.3258.197.1358.3734.3021.5298.499z"></path><path d="m79.1327 19.6468h-2.0584v-1.4064h5.7067v1.4064h-2.0588v5.8078h-1.5895z"></path></g></svg>