<svg xmlns="http://www.w3.org/2000/svg" width="11" height="18" viewBox="0 0 11 18" fill="none">
    <path
        d="M8.62666 0.989844L6.71899 7.91664H9.55069L3.25294 15.8457L4.48864 8.97219H1.02336L8.62666 0.989844ZM8.62692 0C8.61438 0 8.60184 0.0535693 8.5893 0.0540971C8.37435 0.0620137 8.17655 0.164666 8.01508 0.288957C7.97516 0.319832 7.93678 0.367068 7.90095 0.40454L0.297649 8.30007C0.00618887 8.60249 -0.0803024 9.02022 0.0786062 9.41368C0.237515 9.8074 0.610349 10.028 1.02361 10.028H3.26113L2.24626 15.7887C2.16259 16.2613 2.39852 16.7516 2.82023 16.9548C2.95918 17.0218 3.10657 17.0638 3.25243 17.0638C3.55029 17.0638 3.84175 16.9348 4.04083 16.6864L10.3388 8.85371C10.5919 8.53889 10.6456 7.96942 10.477 7.59945C10.3084 7.22921 9.94732 6.86135 9.55069 6.86135H8.06882L9.6011 1.3548C9.63334 1.25241 9.65074 1.15636 9.65074 1.04236C9.65074 0.466554 9.20446 0.000263932 8.64892 0.000263932C8.64176 4.37769e-08 8.63434 0 8.62692 0Z"
        fill="black" />
    <path
        d="M3.25399 8.36493C3.19155 8.36493 3.12911 8.34145 3.07973 8.29421C2.97635 8.19525 2.9702 8.02821 3.06642 7.92134L6.39301 4.2269C6.48897 4.12003 6.6512 4.11396 6.75458 4.21318C6.85796 4.31214 6.8641 4.47918 6.76789 4.58606L3.4413 8.28049C3.39115 8.3367 3.32257 8.36493 3.25399 8.36493Z"
        fill="black" />
    <path
        d="M6.60726 10.4761C6.5525 10.4761 6.49698 10.4582 6.4504 10.4204C6.33883 10.331 6.31862 10.1653 6.40562 10.0502L7.40078 8.73076C7.48753 8.61596 7.64823 8.59485 7.7598 8.68457C7.87137 8.77403 7.89158 8.93975 7.80458 9.05481L6.80942 10.3743C6.75901 10.441 6.68352 10.4761 6.60726 10.4761Z"
        fill="black" />
    <path
        d="M5.81135 11.5311C5.75659 11.5311 5.70106 11.5132 5.65474 11.4754C5.54292 11.386 5.5227 11.2203 5.60971 11.1055L5.80853 10.8416C5.89477 10.7265 6.05624 10.7049 6.16729 10.7951C6.27912 10.8846 6.29933 11.0503 6.21233 11.1651L6.0135 11.429C5.96335 11.496 5.88786 11.5311 5.81135 11.5311Z"
        fill="black" />
</svg>